<svg width="104" height="30" viewBox="0 0 104 30" fill="none" xmlns="http://www.w3.org/2000/svg">
<path d="M11.2209 8.32953C11.9576 8.32953 12.6308 8.41874 13.2405 8.59715L12.2879 14.4463C11.5257 14.2679 10.916 14.1787 10.4587 14.1787C9.26472 14.1787 8.35015 14.5993 7.71504 15.4403C7.10533 16.2559 6.62264 17.492 6.26698 19.1486V29.2032H0.246094V8.90299H5.50484L6.00023 12.8407C6.45751 11.4389 7.14344 10.343 8.058 9.5529C8.99797 8.73732 10.0523 8.32953 11.2209 8.32953ZM32.0309 18.6517C32.0309 19.4927 31.9928 20.2191 31.9166 20.8308H19.3793C19.5826 22.5384 20.0652 23.7363 20.8274 24.4244C21.5895 25.1125 22.6438 25.4566 23.9902 25.4566C24.8032 25.4566 25.5907 25.3164 26.3529 25.0361C27.1151 24.7302 27.9408 24.2715 28.83 23.6598L31.3069 27.024C28.9443 28.9101 26.3148 29.8531 23.4186 29.8531C20.1415 29.8531 17.6264 28.8846 15.8735 26.9476C14.1206 25.0106 13.2441 22.4109 13.2441 19.1486C13.2441 17.0842 13.6125 15.2364 14.3492 13.6053C15.0859 11.9486 16.1656 10.6488 17.5883 9.70582C19.0109 8.73732 20.7131 8.25307 22.6946 8.25307C25.6161 8.25307 27.9027 9.1706 29.554 11.0056C31.2053 12.8407 32.0309 15.3894 32.0309 18.6517ZM26.1242 16.9313C26.0734 13.8219 24.981 12.2672 22.847 12.2672C21.8055 12.2672 20.9925 12.6495 20.4082 13.4141C19.8493 14.1787 19.5063 15.4403 19.3793 17.1989H26.1242V16.9313ZM51.1219 23.3157C51.1219 24.0803 51.2236 24.641 51.4268 24.9979C51.6554 25.3547 52.0111 25.6223 52.4938 25.8007L51.2363 29.7384C49.9914 29.6364 48.9753 29.3688 48.1877 28.9355C47.4002 28.4768 46.7905 27.7632 46.3586 26.7947C45.0375 28.8336 43.0052 29.8531 40.2615 29.8531C38.2545 29.8531 36.654 29.2669 35.46 28.0945C34.266 26.9221 33.669 25.3929 33.669 23.5069C33.669 21.2895 34.4819 19.5947 36.1078 18.4223C37.7337 17.2499 40.0837 16.6637 43.1576 16.6637H45.2154V15.7844C45.2154 14.5865 44.9613 13.771 44.4532 13.3377C43.9451 12.8789 43.056 12.6495 41.7858 12.6495C41.1252 12.6495 40.325 12.7515 39.385 12.9554C38.4451 13.1338 37.4797 13.3886 36.4889 13.72L35.1171 9.74405C36.3873 9.2598 37.6829 8.89024 39.004 8.63538C40.3504 8.38051 41.5952 8.25307 42.7384 8.25307C45.6346 8.25307 47.7558 8.85201 49.1023 10.0499C50.4487 11.2478 51.1219 13.0446 51.1219 15.4403V23.3157ZM42.0144 25.5331C43.3862 25.5331 44.4532 24.8832 45.2154 23.5833V19.9897H43.7292C42.3574 19.9897 41.3285 20.2318 40.6426 20.7161C39.982 21.2003 39.6518 21.9522 39.6518 22.9717C39.6518 23.7872 39.855 24.4244 40.2615 24.8832C40.6934 25.3164 41.2777 25.5331 42.0144 25.5331ZM60.9188 29.8531C59.1659 29.8531 57.7941 29.3561 56.8033 28.3621C55.8379 27.3426 55.3552 25.9026 55.3552 24.0421V0.836435L61.3761 0.186523V23.8127C61.3761 24.6538 61.7191 25.0743 62.405 25.0743C62.7607 25.0743 63.0909 25.0106 63.3958 24.8832L64.5771 29.1649C63.4847 29.6237 62.2653 29.8531 60.9188 29.8531ZM83.9306 29.2032H78.71L78.4432 26.6417C76.9698 28.7826 74.9247 29.8531 72.308 29.8531C70.4535 29.8531 69.0435 29.2924 68.0782 28.1709C67.1382 27.0495 66.6682 25.4821 66.6682 23.4686V8.90299H72.6891V22.704C72.6891 23.698 72.8415 24.3989 73.1464 24.8067C73.4766 25.189 73.972 25.3802 74.6326 25.3802C75.9028 25.3802 76.9952 24.5901 77.9097 23.0099V8.90299H83.9306V29.2032ZM95.7919 8.25307C97.24 8.25307 98.5991 8.46971 99.8694 8.90299C101.14 9.33626 102.257 9.94794 103.223 10.738L101.013 14.1405C99.3613 13.0956 97.6973 12.5731 96.0206 12.5731C95.233 12.5731 94.6233 12.7133 94.1914 12.9936C93.785 13.2485 93.5817 13.618 93.5817 14.1023C93.5817 14.4846 93.6706 14.8032 93.8485 15.058C94.0517 15.2874 94.4455 15.5295 95.0298 15.7844C95.6141 16.0393 96.516 16.3451 97.7354 16.7019C99.844 17.3136 101.406 18.1164 102.423 19.1104C103.464 20.0789 103.985 21.4297 103.985 23.1628C103.985 24.5391 103.591 25.737 102.804 26.7564C102.016 27.7504 100.936 28.515 99.5645 29.0502C98.1926 29.5855 96.6684 29.8531 94.9917 29.8531C93.2896 29.8531 91.7018 29.5855 90.2283 29.0502C88.7803 28.515 87.5481 27.7759 86.532 26.8329L89.4662 23.5451C91.1683 24.8704 92.9593 25.5331 94.8392 25.5331C95.7538 25.5331 96.4651 25.3674 96.9732 25.0361C97.5067 24.7048 97.7735 24.2332 97.7735 23.6216C97.7735 23.1373 97.6719 22.755 97.4686 22.4747C97.2654 22.1943 96.8716 21.9394 96.2873 21.7101C95.703 21.4552 94.7757 21.1494 93.5055 20.7925C91.4986 20.2063 89.9997 19.3908 89.0089 18.3458C88.0181 17.3009 87.5227 16.001 87.5227 14.4463C87.5227 13.274 87.853 12.229 88.5135 11.3115C89.1994 10.3685 90.1648 9.62936 91.4096 9.09414C92.6799 8.53343 94.1406 8.25307 95.7919 8.25307Z" fill="white"/>
</svg>
